<svg xmlns="http://www.w3.org/2000/svg" xmlns:xlink="http://www.w3.org/1999/xlink" viewBox="0,0,256,256" width="256px" height="256px" fill-rule="nonzero"><g fill="#a40a45" fill-rule="nonzero" stroke="none" stroke-width="1" stroke-linecap="butt" stroke-linejoin="miter" stroke-miterlimit="10" stroke-dasharray="" stroke-dashoffset="0" font-family="none" font-weight="none" font-size="none" text-anchor="none" style="mix-blend-mode: normal"><g transform="scale(8,8)"><path d="M2,7v18h4.32031c-2.06,-2.65 -3.32031,-6.16 -3.32031,-10c0,-3.08 1.15078,-5.88 3.05078,-8zM16,7c-0.35,0 -0.68,0.04086 -1,0.13086c-1.73,0.44 -3,2.00914 -3,3.86914h8c0,-2.21 -1.79,-4 -4,-4zM25.66016,7c1.47,2.27 2.33984,5.03 2.33984,8h-2h-2h-6h-2h-1h-3c0,3.51 1,6.5593 3,8.0293c0.31,0.24 0.64,0.43008 1,0.58008c0.6,0.25 1.27,0.39063 2,0.39063c2.97,0 5.56945,-1.8193 6.93945,-4.5293l2.02148,1.00977l1.55859,0.7793c-0.7,1.4 -1.62047,2.66023 -2.73047,3.74023h4.21094v-3v-4v-3v-8z"></path></g></g></svg>